<mxfile host="app.diagrams.net" agent="Mozilla/5.0 (Windows NT 10.0; Win64; x64) AppleWebKit/537.36 (KHTML, like Gecko) Chrome/137.0.0.0 Safari/537.36" version="27.1.4">
  <diagram name="PÃ¡gina-1" id="l_C803czDVtYDkF594r6">
    <mxGraphModel grid="1" page="1" gridSize="10" guides="1" tooltips="1" connect="1" arrows="1" fold="1" pageScale="1" pageWidth="827" pageHeight="1169" math="0" shadow="0">
      <root>
        <mxCell id="0" />
        <mxCell id="1" parent="0" />
        <mxCell id="fIZAA6f2MjUpKi2gWTQI-20" value=":Controller" style="html=1;whiteSpace=wrap;" vertex="1" parent="1">
          <mxGeometry x="250" y="140" width="110" height="50" as="geometry" />
        </mxCell>
        <mxCell id="fIZAA6f2MjUpKi2gWTQI-21" value="Object" style="html=1;whiteSpace=wrap;" vertex="1" parent="1">
          <mxGeometry x="530" y="150" width="110" height="50" as="geometry" />
        </mxCell>
        <mxCell id="fIZAA6f2MjUpKi2gWTQI-22" value=": Usuario" style="html=1;whiteSpace=wrap;" vertex="1" parent="1">
          <mxGeometry x="520" y="140" width="110" height="50" as="geometry" />
        </mxCell>
        <mxCell id="fIZAA6f2MjUpKi2gWTQI-23" value="&lt;font style=&quot;font-size: 14px;&quot;&gt;1* [foreach] u=next()&lt;/font&gt;" style="endArrow=none;html=1;endSize=12;startArrow=none;startSize=14;startFill=0;edgeStyle=orthogonalEdgeStyle;align=center;verticalAlign=bottom;endFill=0;rounded=0;entryX=0;entryY=0.5;entryDx=0;entryDy=0;" edge="1" parent="1" target="fIZAA6f2MjUpKi2gWTQI-22">
          <mxGeometry y="3" relative="1" as="geometry">
            <mxPoint x="360" y="164.5" as="sourcePoint" />
            <mxPoint x="520" y="164.5" as="targetPoint" />
          </mxGeometry>
        </mxCell>
        <mxCell id="fIZAA6f2MjUpKi2gWTQI-24" value="&lt;font style=&quot;font-size: 14px;&quot;&gt;listarNicknamesUsuario():set(str&lt;/font&gt;&lt;span style=&quot;font-size: 14px; background-color: light-dark(#ffffff, var(--ge-dark-color, #121212)); color: light-dark(rgb(0, 0, 0), rgb(255, 255, 255));&quot;&gt;)&lt;/span&gt;" style="endArrow=none;html=1;endSize=12;startArrow=none;startSize=14;startFill=0;edgeStyle=orthogonalEdgeStyle;align=center;verticalAlign=bottom;endFill=0;rounded=0;" edge="1" parent="1">
          <mxGeometry y="3" relative="1" as="geometry">
            <mxPoint x="40" y="165" as="sourcePoint" />
            <mxPoint x="250" y="164.5" as="targetPoint" />
          </mxGeometry>
        </mxCell>
        <mxCell id="fIZAA6f2MjUpKi2gWTQI-25" value="u: Usuario" style="html=1;whiteSpace=wrap;" vertex="1" parent="1">
          <mxGeometry x="452" y="425" width="110" height="50" as="geometry" />
        </mxCell>
        <mxCell id="fIZAA6f2MjUpKi2gWTQI-26" value="&lt;font style=&quot;font-size: 14px;&quot;&gt;2 retornarComentarios()&lt;/font&gt;" style="endArrow=none;html=1;endSize=12;startArrow=none;startSize=14;startFill=0;edgeStyle=orthogonalEdgeStyle;align=center;verticalAlign=bottom;endFill=0;rounded=0;exitX=0.5;exitY=1;exitDx=0;exitDy=0;entryX=0;entryY=0.5;entryDx=0;entryDy=0;" edge="1" parent="1" target="fIZAA6f2MjUpKi2gWTQI-25">
          <mxGeometry x="0.3881" relative="1" as="geometry">
            <mxPoint x="335" y="384.9999999999999" as="sourcePoint" />
            <mxPoint x="540" y="489.5" as="targetPoint" />
            <Array as="points">
              <mxPoint x="292" y="385" />
              <mxPoint x="292" y="450" />
            </Array>
            <mxPoint as="offset" />
          </mxGeometry>
        </mxCell>
        <mxCell id="fIZAA6f2MjUpKi2gWTQI-27" value="" style="endArrow=classic;html=1;rounded=0;" edge="1" parent="1">
          <mxGeometry width="50" height="50" relative="1" as="geometry">
            <mxPoint x="332" y="459.5" as="sourcePoint" />
            <mxPoint x="382" y="459.5" as="targetPoint" />
          </mxGeometry>
        </mxCell>
        <mxCell id="fIZAA6f2MjUpKi2gWTQI-28" value="" style="endArrow=classic;html=1;rounded=0;" edge="1" parent="1">
          <mxGeometry width="50" height="50" relative="1" as="geometry">
            <mxPoint x="410" y="174.37" as="sourcePoint" />
            <mxPoint x="460" y="174.37" as="targetPoint" />
          </mxGeometry>
        </mxCell>
        <mxCell id="fIZAA6f2MjUpKi2gWTQI-29" value=":Controller" style="html=1;whiteSpace=wrap;" vertex="1" parent="1">
          <mxGeometry x="284" y="335" width="110" height="50" as="geometry" />
        </mxCell>
        <mxCell id="fIZAA6f2MjUpKi2gWTQI-30" value="&lt;font style=&quot;font-size: 14px;&quot;&gt;seleccionarUsuario(nick):set(DTComentario)&lt;/font&gt;" style="endArrow=none;html=1;endSize=12;startArrow=none;startSize=14;startFill=0;edgeStyle=orthogonalEdgeStyle;align=center;verticalAlign=bottom;endFill=0;rounded=0;" edge="1" parent="1">
          <mxGeometry y="3" relative="1" as="geometry">
            <mxPoint y="360" as="sourcePoint" />
            <mxPoint x="284" y="359.5" as="targetPoint" />
          </mxGeometry>
        </mxCell>
        <mxCell id="fIZAA6f2MjUpKi2gWTQI-31" value="&lt;font style=&quot;font-size: 14px;&quot;&gt;1 u= find(nick)&lt;/font&gt;" style="endArrow=none;html=1;endSize=12;startArrow=none;startSize=14;startFill=0;edgeStyle=orthogonalEdgeStyle;align=center;verticalAlign=bottom;endFill=0;rounded=0;entryX=0;entryY=0.5;entryDx=0;entryDy=0;" edge="1" parent="1">
          <mxGeometry x="-0.3933" y="5" relative="1" as="geometry">
            <mxPoint x="394" y="359.5" as="sourcePoint" />
            <mxPoint x="644" y="360" as="targetPoint" />
            <mxPoint as="offset" />
          </mxGeometry>
        </mxCell>
        <mxCell id="fIZAA6f2MjUpKi2gWTQI-32" value="Object" style="html=1;whiteSpace=wrap;" vertex="1" parent="1">
          <mxGeometry x="544" y="345" width="110" height="50" as="geometry" />
        </mxCell>
        <mxCell id="fIZAA6f2MjUpKi2gWTQI-33" value=": Usuario" style="html=1;whiteSpace=wrap;" vertex="1" parent="1">
          <mxGeometry x="534" y="335" width="110" height="50" as="geometry" />
        </mxCell>
        <mxCell id="fIZAA6f2MjUpKi2gWTQI-34" value="Recuerdo usuario obtenido" style="shape=note2;boundedLbl=1;whiteSpace=wrap;html=1;size=25;verticalAlign=top;align=center;" vertex="1" parent="1">
          <mxGeometry x="112" y="375" width="70" height="85" as="geometry" />
        </mxCell>
        <mxCell id="fIZAA6f2MjUpKi2gWTQI-36" value="" style="endArrow=none;dashed=1;html=1;rounded=0;entryX=1.057;entryY=0.753;entryDx=0;entryDy=0;entryPerimeter=0;" edge="1" parent="1" target="fIZAA6f2MjUpKi2gWTQI-34">
          <mxGeometry width="50" height="50" relative="1" as="geometry">
            <mxPoint x="282" y="375" as="sourcePoint" />
            <mxPoint x="314" y="310" as="targetPoint" />
            <Array as="points">
              <mxPoint x="202" y="435" />
            </Array>
          </mxGeometry>
        </mxCell>
        <mxCell id="fIZAA6f2MjUpKi2gWTQI-38" value="" style="endArrow=classic;html=1;rounded=0;" edge="1" parent="1">
          <mxGeometry width="50" height="50" relative="1" as="geometry">
            <mxPoint x="444" y="369.40999999999997" as="sourcePoint" />
            <mxPoint x="494" y="369.40999999999997" as="targetPoint" />
          </mxGeometry>
        </mxCell>
        <mxCell id="fIZAA6f2MjUpKi2gWTQI-39" value="Object" style="html=1;whiteSpace=wrap;" vertex="1" parent="1">
          <mxGeometry x="708" y="435" width="110" height="50" as="geometry" />
        </mxCell>
        <mxCell id="fIZAA6f2MjUpKi2gWTQI-40" value="Comentario" style="html=1;whiteSpace=wrap;" vertex="1" parent="1">
          <mxGeometry x="702" y="425" width="110" height="50" as="geometry" />
        </mxCell>
        <mxCell id="fIZAA6f2MjUpKi2gWTQI-43" value="&lt;span style=&quot;font-size: 14px;&quot;&gt;2.1*[foreach] c=next()&lt;/span&gt;" style="endArrow=none;html=1;endSize=12;startArrow=none;startSize=14;startFill=0;align=center;verticalAlign=bottom;endFill=0;rounded=0;exitX=1;exitY=0.5;exitDx=0;exitDy=0;entryX=0;entryY=0.5;entryDx=0;entryDy=0;" edge="1" parent="1" source="fIZAA6f2MjUpKi2gWTQI-25" target="fIZAA6f2MjUpKi2gWTQI-40">
          <mxGeometry y="5" relative="1" as="geometry">
            <mxPoint x="486" y="475" as="sourcePoint" />
            <mxPoint x="685" y="540.0000000000001" as="targetPoint" />
            <mxPoint as="offset" />
          </mxGeometry>
        </mxCell>
        <mxCell id="fIZAA6f2MjUpKi2gWTQI-44" value="c: Comentaio" style="html=1;whiteSpace=wrap;" vertex="1" parent="1">
          <mxGeometry x="188" y="535.0000000000001" width="110" height="50" as="geometry" />
        </mxCell>
        <mxCell id="fIZAA6f2MjUpKi2gWTQI-45" value="&lt;span style=&quot;font-size: 14px;&quot;&gt;2.2* c=getDTComentario:DTComentario&lt;/span&gt;" style="endArrow=none;html=1;endSize=12;startArrow=none;startSize=14;startFill=0;align=center;verticalAlign=bottom;endFill=0;rounded=0;entryX=0;entryY=0.5;entryDx=0;entryDy=0;exitX=0.25;exitY=1;exitDx=0;exitDy=0;elbow=vertical;edgeStyle=orthogonalEdgeStyle;" edge="1" parent="1" source="fIZAA6f2MjUpKi2gWTQI-25" target="fIZAA6f2MjUpKi2gWTQI-44">
          <mxGeometry x="-0.0896" relative="1" as="geometry">
            <mxPoint x="82" y="500" as="sourcePoint" />
            <mxPoint x="231" y="665" as="targetPoint" />
            <mxPoint x="1" as="offset" />
            <Array as="points">
              <mxPoint x="480" y="508" />
              <mxPoint x="172" y="508" />
              <mxPoint x="172" y="565" />
            </Array>
          </mxGeometry>
        </mxCell>
        <mxCell id="fIZAA6f2MjUpKi2gWTQI-46" value="" style="endArrow=classic;html=1;rounded=0;" edge="1" parent="1">
          <mxGeometry width="50" height="50" relative="1" as="geometry">
            <mxPoint x="601" y="459.33000000000015" as="sourcePoint" />
            <mxPoint x="651" y="459.33000000000015" as="targetPoint" />
          </mxGeometry>
        </mxCell>
        <mxCell id="fIZAA6f2MjUpKi2gWTQI-48" value="&lt;span style=&quot;font-size: 14px;&quot;&gt;1.1 c=find(DTComentario.id)&lt;/span&gt;" style="endArrow=none;html=1;endSize=12;startArrow=none;startSize=14;startFill=0;align=center;verticalAlign=bottom;endFill=0;rounded=0;exitX=1;exitY=0.5;exitDx=0;exitDy=0;entryX=1;entryY=0;entryDx=0;entryDy=0;" edge="1" parent="1" source="fIZAA6f2MjUpKi2gWTQI-54" target="fIZAA6f2MjUpKi2gWTQI-57">
          <mxGeometry x="0.7157" y="-10" relative="1" as="geometry">
            <mxPoint x="620" y="660" as="sourcePoint" />
            <mxPoint x="818.9999999999995" y="725" as="targetPoint" />
            <mxPoint as="offset" />
            <Array as="points">
              <mxPoint x="820" y="635" />
              <mxPoint x="820" y="745" />
            </Array>
          </mxGeometry>
        </mxCell>
        <mxCell id="fIZAA6f2MjUpKi2gWTQI-49" value="" style="endArrow=classic;html=1;rounded=0;" edge="1" parent="1">
          <mxGeometry width="50" height="50" relative="1" as="geometry">
            <mxPoint x="770" y="705" as="sourcePoint" />
            <mxPoint x="718" y="705" as="targetPoint" />
          </mxGeometry>
        </mxCell>
        <mxCell id="fIZAA6f2MjUpKi2gWTQI-50" value=":Controller" style="html=1;whiteSpace=wrap;" vertex="1" parent="1">
          <mxGeometry x="210" y="610" width="110" height="50" as="geometry" />
        </mxCell>
        <mxCell id="fIZAA6f2MjUpKi2gWTQI-51" value="&lt;font style=&quot;font-size: 14px;&quot;&gt;borraComentario(DTComentario&lt;/font&gt;&lt;span style=&quot;font-size: 14px; background-color: light-dark(#ffffff, var(--ge-dark-color, #121212)); color: light-dark(rgb(0, 0, 0), rgb(255, 255, 255));&quot;&gt;)&lt;/span&gt;" style="endArrow=none;html=1;endSize=12;startArrow=none;startSize=14;startFill=0;edgeStyle=orthogonalEdgeStyle;align=center;verticalAlign=bottom;endFill=0;rounded=0;" edge="1" parent="1">
          <mxGeometry y="3" relative="1" as="geometry">
            <mxPoint y="635" as="sourcePoint" />
            <mxPoint x="210" y="634.5" as="targetPoint" />
          </mxGeometry>
        </mxCell>
        <mxCell id="fIZAA6f2MjUpKi2gWTQI-52" value="&lt;font style=&quot;font-size: 14px;&quot;&gt;1 borrarComentario(DTComentario)&lt;/font&gt;" style="endArrow=none;html=1;endSize=12;startArrow=none;startSize=14;startFill=0;edgeStyle=orthogonalEdgeStyle;align=center;verticalAlign=bottom;endFill=0;rounded=0;entryX=0;entryY=0.5;entryDx=0;entryDy=0;" edge="1" parent="1">
          <mxGeometry x="-0.0418" relative="1" as="geometry">
            <mxPoint x="320" y="634.5" as="sourcePoint" />
            <mxPoint x="570" y="635" as="targetPoint" />
            <mxPoint as="offset" />
          </mxGeometry>
        </mxCell>
        <mxCell id="fIZAA6f2MjUpKi2gWTQI-54" value="u : Usuario" style="html=1;whiteSpace=wrap;" vertex="1" parent="1">
          <mxGeometry x="560" y="610" width="110" height="50" as="geometry" />
        </mxCell>
        <mxCell id="fIZAA6f2MjUpKi2gWTQI-55" value="" style="endArrow=classic;html=1;rounded=0;" edge="1" parent="1">
          <mxGeometry width="50" height="50" relative="1" as="geometry">
            <mxPoint x="420" y="645" as="sourcePoint" />
            <mxPoint x="470" y="645" as="targetPoint" />
          </mxGeometry>
        </mxCell>
        <mxCell id="fIZAA6f2MjUpKi2gWTQI-56" value="Object" style="html=1;whiteSpace=wrap;" vertex="1" parent="1">
          <mxGeometry x="572" y="755" width="110" height="50" as="geometry" />
        </mxCell>
        <mxCell id="fIZAA6f2MjUpKi2gWTQI-57" value="Comentario" style="html=1;whiteSpace=wrap;" vertex="1" parent="1">
          <mxGeometry x="562" y="745" width="110" height="50" as="geometry" />
        </mxCell>
        <mxCell id="fIZAA6f2MjUpKi2gWTQI-58" value="&lt;span style=&quot;font-size: 14px;&quot;&gt;1.2 borrarRespuesta&lt;/span&gt;" style="endArrow=none;html=1;endSize=12;startArrow=none;startSize=14;startFill=0;edgeStyle=orthogonalEdgeStyle;align=center;verticalAlign=bottom;endFill=0;rounded=0;entryX=0;entryY=0.5;entryDx=0;entryDy=0;exitX=0.5;exitY=1;exitDx=0;exitDy=0;" edge="1" parent="1" source="fIZAA6f2MjUpKi2gWTQI-54" target="fIZAA6f2MjUpKi2gWTQI-59">
          <mxGeometry x="0.8046" relative="1" as="geometry">
            <mxPoint x="620" y="670" as="sourcePoint" />
            <mxPoint x="819" y="725" as="targetPoint" />
            <Array as="points">
              <mxPoint x="570" y="660" />
              <mxPoint x="570" y="725" />
              <mxPoint x="130" y="725" />
              <mxPoint x="130" y="844" />
            </Array>
            <mxPoint as="offset" />
          </mxGeometry>
        </mxCell>
        <mxCell id="fIZAA6f2MjUpKi2gWTQI-59" value="c: Comentaio" style="html=1;whiteSpace=wrap;" vertex="1" parent="1">
          <mxGeometry x="280" y="819" width="110" height="50" as="geometry" />
        </mxCell>
        <mxCell id="fIZAA6f2MjUpKi2gWTQI-61" value="" style="endArrow=classic;html=1;rounded=0;" edge="1" parent="1">
          <mxGeometry width="50" height="50" relative="1" as="geometry">
            <mxPoint x="464" y="853.5200000000002" as="sourcePoint" />
            <mxPoint x="514" y="853.5200000000002" as="targetPoint" />
          </mxGeometry>
        </mxCell>
        <mxCell id="fIZAA6f2MjUpKi2gWTQI-64" value="&lt;div style=&quot;text-align: center;&quot;&gt;&lt;span style=&quot;background-color: transparent; color: light-dark(rgb(0, 0, 0), rgb(255, 255, 255)); font-size: 14px; text-wrap-mode: nowrap;&quot;&gt;1.3 destroy()&lt;/span&gt;&lt;/div&gt;" style="text;whiteSpace=wrap;html=1;fontColor=default;" vertex="1" parent="1">
          <mxGeometry x="130" y="849" width="160" height="40" as="geometry" />
        </mxCell>
        <mxCell id="fIZAA6f2MjUpKi2gWTQI-67" value="" style="endArrow=classic;html=1;rounded=0;" edge="1" parent="1">
          <mxGeometry width="50" height="50" relative="1" as="geometry">
            <mxPoint x="150" y="879" as="sourcePoint" />
            <mxPoint x="200" y="879" as="targetPoint" />
          </mxGeometry>
        </mxCell>
        <mxCell id="fIZAA6f2MjUpKi2gWTQI-68" value="" style="endArrow=classic;html=1;rounded=0;" edge="1" parent="1">
          <mxGeometry width="50" height="50" relative="1" as="geometry">
            <mxPoint x="150" y="809" as="sourcePoint" />
            <mxPoint x="200" y="809" as="targetPoint" />
          </mxGeometry>
        </mxCell>
        <mxCell id="fIZAA6f2MjUpKi2gWTQI-69" value="&lt;span style=&quot;font-size: 14px;&quot;&gt;1.2.1*&amp;nbsp;&lt;/span&gt;&lt;span style=&quot;font-size: 14px;&quot;&gt;[foreach] r=next()&lt;/span&gt;&lt;span style=&quot;font-size: 14px;&quot;&gt;&amp;nbsp;&lt;/span&gt;" style="endArrow=none;html=1;endSize=12;startArrow=none;startSize=14;startFill=0;align=center;verticalAlign=bottom;endFill=0;rounded=0;entryX=0;entryY=0.5;entryDx=0;entryDy=0;exitX=1;exitY=0.5;exitDx=0;exitDy=0;" edge="1" parent="1" source="fIZAA6f2MjUpKi2gWTQI-59" target="fIZAA6f2MjUpKi2gWTQI-71">
          <mxGeometry x="0.0714" y="5" relative="1" as="geometry">
            <mxPoint x="354" y="869" as="sourcePoint" />
            <mxPoint x="553" y="924" as="targetPoint" />
            <mxPoint as="offset" />
          </mxGeometry>
        </mxCell>
        <mxCell id="fIZAA6f2MjUpKi2gWTQI-70" value="Object" style="html=1;whiteSpace=wrap;" vertex="1" parent="1">
          <mxGeometry x="608" y="829" width="110" height="50" as="geometry" />
        </mxCell>
        <mxCell id="fIZAA6f2MjUpKi2gWTQI-71" value="Comentario" style="html=1;whiteSpace=wrap;" vertex="1" parent="1">
          <mxGeometry x="598" y="819" width="110" height="50" as="geometry" />
        </mxCell>
        <mxCell id="fIZAA6f2MjUpKi2gWTQI-72" value="&lt;span style=&quot;font-size: 14px;&quot;&gt;1.2.2* destroy()&lt;/span&gt;" style="endArrow=none;html=1;endSize=12;startArrow=none;startSize=14;startFill=0;edgeStyle=orthogonalEdgeStyle;align=center;verticalAlign=bottom;endFill=0;rounded=0;entryX=0;entryY=0.5;entryDx=0;entryDy=0;" edge="1" parent="1">
          <mxGeometry x="0.0714" y="5" relative="1" as="geometry">
            <mxPoint x="322" y="869" as="sourcePoint" />
            <mxPoint x="521" y="924" as="targetPoint" />
            <Array as="points">
              <mxPoint x="322" y="924" />
            </Array>
            <mxPoint as="offset" />
          </mxGeometry>
        </mxCell>
        <mxCell id="fIZAA6f2MjUpKi2gWTQI-73" value="r: Comentaio" style="html=1;whiteSpace=wrap;" vertex="1" parent="1">
          <mxGeometry x="498" y="899" width="110" height="50" as="geometry" />
        </mxCell>
        <mxCell id="fIZAA6f2MjUpKi2gWTQI-74" value="" style="endArrow=classic;html=1;rounded=0;" edge="1" parent="1">
          <mxGeometry width="50" height="50" relative="1" as="geometry">
            <mxPoint x="382" y="939" as="sourcePoint" />
            <mxPoint x="432" y="939" as="targetPoint" />
          </mxGeometry>
        </mxCell>
        <mxCell id="fIZAA6f2MjUpKi2gWTQI-75" value="Lista de respuestas" style="shape=note2;boundedLbl=1;whiteSpace=wrap;html=1;size=25;verticalAlign=top;align=center;" vertex="1" parent="1">
          <mxGeometry x="732" y="869" width="70" height="85" as="geometry" />
        </mxCell>
        <mxCell id="fIZAA6f2MjUpKi2gWTQI-76" value="" style="endArrow=none;dashed=1;html=1;rounded=0;exitX=0.75;exitY=1;exitDx=0;exitDy=0;entryX=0.043;entryY=0.995;entryDx=0;entryDy=0;entryPerimeter=0;" edge="1" parent="1" source="fIZAA6f2MjUpKi2gWTQI-71" target="fIZAA6f2MjUpKi2gWTQI-75">
          <mxGeometry width="50" height="50" relative="1" as="geometry">
            <mxPoint x="1281" y="794" as="sourcePoint" />
            <mxPoint x="1200" y="684" as="targetPoint" />
          </mxGeometry>
        </mxCell>
        <mxCell id="7J-sNN6DNzNYFwAVL4SD-1" value="u: Usuario" style="html=1;whiteSpace=wrap;" vertex="1" parent="1">
          <mxGeometry x="450" y="230.0000000000001" width="110" height="50" as="geometry" />
        </mxCell>
        <mxCell id="7J-sNN6DNzNYFwAVL4SD-2" value="&lt;font style=&quot;font-size: 14px;&quot;&gt;2* n=getNick:str&lt;/font&gt;" style="endArrow=none;html=1;endSize=12;startArrow=none;startSize=14;startFill=0;edgeStyle=orthogonalEdgeStyle;align=center;verticalAlign=bottom;endFill=0;rounded=0;exitX=0.5;exitY=1;exitDx=0;exitDy=0;entryX=0;entryY=0.5;entryDx=0;entryDy=0;" edge="1" parent="1" target="7J-sNN6DNzNYFwAVL4SD-1">
          <mxGeometry x="0.249" relative="1" as="geometry">
            <mxPoint x="302" y="190" as="sourcePoint" />
            <mxPoint x="507" y="294.5000000000001" as="targetPoint" />
            <Array as="points">
              <mxPoint x="302" y="255.0000000000001" />
            </Array>
            <mxPoint as="offset" />
          </mxGeometry>
        </mxCell>
        <mxCell id="7J-sNN6DNzNYFwAVL4SD-3" value="" style="endArrow=classic;html=1;rounded=0;" edge="1" parent="1">
          <mxGeometry width="50" height="50" relative="1" as="geometry">
            <mxPoint x="350" y="270.0000000000001" as="sourcePoint" />
            <mxPoint x="400" y="270.0000000000001" as="targetPoint" />
          </mxGeometry>
        </mxCell>
        <mxCell id="9B_lGA5xgd4rxIB44KFo-2" value="&lt;font style=&quot;font-size: 14px;&quot;&gt;2.2 d=create(c.texto,c.id,c.fecEscrito)&lt;/font&gt;" style="endArrow=none;html=1;endSize=12;startArrow=none;startSize=14;startFill=0;edgeStyle=orthogonalEdgeStyle;align=center;verticalAlign=bottom;endFill=0;rounded=0;entryX=0;entryY=0.5;entryDx=0;entryDy=0;" edge="1" parent="1">
          <mxGeometry x="-0.0019" relative="1" as="geometry">
            <mxPoint x="298" y="559.5" as="sourcePoint" />
            <mxPoint x="548" y="560" as="targetPoint" />
            <mxPoint x="1" as="offset" />
          </mxGeometry>
        </mxCell>
        <mxCell id="9B_lGA5xgd4rxIB44KFo-5" value="" style="endArrow=classic;html=1;rounded=0;" edge="1" parent="1">
          <mxGeometry width="50" height="50" relative="1" as="geometry">
            <mxPoint x="348" y="569.41" as="sourcePoint" />
            <mxPoint x="398" y="569.41" as="targetPoint" />
          </mxGeometry>
        </mxCell>
        <mxCell id="9B_lGA5xgd4rxIB44KFo-14" value=": DTComentario" style="html=1;whiteSpace=wrap;" vertex="1" parent="1">
          <mxGeometry x="544" y="535" width="110" height="50" as="geometry" />
        </mxCell>
        <mxCell id="9B_lGA5xgd4rxIB44KFo-20" value="" style="endArrow=classic;html=1;rounded=0;" edge="1" parent="1">
          <mxGeometry width="50" height="50" relative="1" as="geometry">
            <mxPoint x="352" y="515.0000000000001" as="sourcePoint" />
            <mxPoint x="302" y="515" as="targetPoint" />
          </mxGeometry>
        </mxCell>
        <mxCell id="9B_lGA5xgd4rxIB44KFo-23" value="&lt;div style=&quot;text-align: center;&quot;&gt;&lt;span style=&quot;font-size: 14px; text-wrap-mode: nowrap;&quot;&gt;1.4 remove(c)&lt;/span&gt;&lt;/div&gt;" style="text;whiteSpace=wrap;html=1;fontColor=default;" vertex="1" parent="1">
          <mxGeometry x="692" y="745" width="118" height="40" as="geometry" />
        </mxCell>
        <mxCell id="9B_lGA5xgd4rxIB44KFo-25" value="" style="endArrow=classic;html=1;rounded=0;" edge="1" parent="1">
          <mxGeometry width="50" height="50" relative="1" as="geometry">
            <mxPoint x="776" y="779.5000000000002" as="sourcePoint" />
            <mxPoint x="718" y="779.5" as="targetPoint" />
          </mxGeometry>
        </mxCell>
        <mxCell id="9B_lGA5xgd4rxIB44KFo-26" value="&lt;span style=&quot;font-size: 14px;&quot;&gt;1.2.3 desasociarProducto()&lt;/span&gt;" style="endArrow=none;html=1;endSize=12;startArrow=none;startSize=14;startFill=0;edgeStyle=orthogonalEdgeStyle;align=center;verticalAlign=bottom;endFill=0;rounded=0;entryX=0;entryY=0.5;entryDx=0;entryDy=0;exitX=0.25;exitY=1;exitDx=0;exitDy=0;" edge="1" parent="1" source="fIZAA6f2MjUpKi2gWTQI-59" target="9B_lGA5xgd4rxIB44KFo-27">
          <mxGeometry x="0.4154" y="5" relative="1" as="geometry">
            <mxPoint x="296" y="949" as="sourcePoint" />
            <mxPoint x="495" y="1004" as="targetPoint" />
            <Array as="points">
              <mxPoint x="296" y="869" />
              <mxPoint x="296" y="1004" />
            </Array>
            <mxPoint as="offset" />
          </mxGeometry>
        </mxCell>
        <mxCell id="9B_lGA5xgd4rxIB44KFo-27" value=": Producto" style="html=1;whiteSpace=wrap;" vertex="1" parent="1">
          <mxGeometry x="498" y="979" width="110" height="50" as="geometry" />
        </mxCell>
        <mxCell id="9B_lGA5xgd4rxIB44KFo-28" value="" style="endArrow=classic;html=1;rounded=0;" edge="1" parent="1">
          <mxGeometry width="50" height="50" relative="1" as="geometry">
            <mxPoint x="356" y="1019" as="sourcePoint" />
            <mxPoint x="406" y="1019" as="targetPoint" />
          </mxGeometry>
        </mxCell>
        <mxCell id="9B_lGA5xgd4rxIB44KFo-29" value="&lt;span style=&quot;font-size: 14px;&quot;&gt;1.2.3.1 remove(c)&lt;/span&gt;" style="endArrow=none;html=1;endSize=12;startArrow=none;startSize=14;startFill=0;align=center;verticalAlign=bottom;endFill=0;rounded=0;exitX=0.136;exitY=1;exitDx=0;exitDy=0;entryX=0;entryY=0.5;entryDx=0;entryDy=0;exitPerimeter=0;" edge="1" parent="1" source="9B_lGA5xgd4rxIB44KFo-27" target="9B_lGA5xgd4rxIB44KFo-32">
          <mxGeometry x="0.1639" y="5" relative="1" as="geometry">
            <mxPoint x="460" y="1104" as="sourcePoint" />
            <mxPoint x="598.9999999999995" y="1194" as="targetPoint" />
            <mxPoint as="offset" />
            <Array as="points">
              <mxPoint x="513" y="1104" />
            </Array>
          </mxGeometry>
        </mxCell>
        <mxCell id="9B_lGA5xgd4rxIB44KFo-30" value="" style="endArrow=classic;html=1;rounded=0;" edge="1" parent="1">
          <mxGeometry width="50" height="50" relative="1" as="geometry">
            <mxPoint x="540" y="1113.5" as="sourcePoint" />
            <mxPoint x="590" y="1113.5" as="targetPoint" />
          </mxGeometry>
        </mxCell>
        <mxCell id="9B_lGA5xgd4rxIB44KFo-31" value="Object" style="html=1;whiteSpace=wrap;" vertex="1" parent="1">
          <mxGeometry x="692" y="1089" width="110" height="50" as="geometry" />
        </mxCell>
        <mxCell id="9B_lGA5xgd4rxIB44KFo-32" value="Comentario" style="html=1;whiteSpace=wrap;" vertex="1" parent="1">
          <mxGeometry x="682" y="1079" width="110" height="50" as="geometry" />
        </mxCell>
        <mxCell id="_Dof4K6Fdjrha8xRLE7p-1" value="&lt;font style=&quot;font-size: 24px;&quot;&gt;&lt;b&gt;Eliminar Comentario&lt;/b&gt;&lt;/font&gt;" style="text;html=1;align=center;verticalAlign=middle;resizable=0;points=[];autosize=1;strokeColor=none;fillColor=none;" vertex="1" parent="1">
          <mxGeometry x="275" y="30" width="260" height="40" as="geometry" />
        </mxCell>
      </root>
    </mxGraphModel>
  </diagram>
</mxfile>
